<svg xmlns="http://www.w3.org/2000/svg" height="40px" viewBox="0 -960 960 960" width="40px" fill="#e8eaed"><path d="M480.02-73.3q-83.95 0-158.14-31.96-74.19-31.96-129.43-87.19-55.23-55.24-87.19-129.41Q73.3-396.03 73.3-479.98q0-85.46 32.24-159.23 32.23-73.78 87.1-128.81l53.53 53.28q-45.53 44.86-71.32 105.24-25.79 60.39-25.79 129.61 0 137.76 96.51 234.3 96.52 96.53 234.43 96.53 138.38 0 234.66-96.51 96.28-96.52 96.28-234.38 0-69.16-25.26-129.55-25.26-60.38-70.94-105.24l53.28-53.28q54.88 55.03 86.86 128.79 31.98 73.75 31.98 159.21 0 83.95-32.03 158.15t-86.94 129.43q-54.91 55.22-129.08 87.18Q564.64-73.3 480.02-73.3Zm-37.9-362.16v-451.4h75.76v451.4h-75.76Z"/></svg>